{
    "asset" : {
        "generator" : "Khronos glTF Blender I/O v1.1.46",
        "version" : "2.0"
    },
    "scene" : 0,
    "scenes" : [
        {
            "name" : "Scene",
            "nodes" : [
                0,
                1
            ]
        }
    ],
    "nodes" : [
        {
            "name" : "Light",
            "rotation" : [
                0.16907575726509094,
                0.7558803558349609,
                -0.27217137813568115,
                0.570947527885437
            ],
            "translation" : [
                4.076245307922363,
                5.903861999511719,
                -1.0054539442062378
            ]
        },
        {
            "mesh" : 0,
            "name" : "Commission It lamp",
            "scale" : [
                0.029999999329447746,
                0.029999999329447746,
                0.029999999329447746
            ]
        }
    ],
    "materials" : [
        {
            "doubleSided" : true,
            "emissiveFactor" : [
                0,
                0,
                0
            ],
            "name" : "Material.001",
            "pbrMetallicRoughness" : {
                "baseColorFactor" : [
                    0.3852251470088959,
                    0.3852251470088959,
                    0.3931141793727875,
                    1
                ],
                "metallicFactor" : 0,
                "roughnessFactor" : 0.5
            }
        }
    ],
    "meshes" : [
        {
            "name" : "Commission It lamp",
            "primitives" : [
                {
                    "attributes" : {
                        "POSITION" : 0,
                        "NORMAL" : 1
                    },
                    "indices" : 2,
                    "material" : 0
                }
            ]
        }
    ],
    "accessors" : [
        {
            "bufferView" : 0,
            "componentType" : 5126,
            "count" : 56748,
            "max" : [
                20.82195472717285,
                81.7708511352539,
                20.69032859802246
            ],
            "min" : [
                -20.82195472717285,
                23.118873596191406,
                -20.69032859802246
            ],
            "type" : "VEC3"
        },
        {
            "bufferView" : 1,
            "componentType" : 5126,
            "count" : 56748,
            "type" : "VEC3"
        },
        {
            "bufferView" : 2,
            "componentType" : 5123,
            "count" : 63198,
            "type" : "SCALAR"
        }
    ],
    "bufferViews" : [
        {
            "buffer" : 0,
            "byteLength" : 680976,
            "byteOffset" : 0
        },
        {
            "buffer" : 0,
            "byteLength" : 680976,
            "byteOffset" : 680976
        },
        {
            "buffer" : 0,
            "byteLength" : 126396,
            "byteOffset" : 1361952
        }
    ],
    "buffers" : [
        {
            "byteLength" : 1488348,
            "uri" : "data:application/octet-stream;base64,"
        }
    ]
}
