{
    "asset" : {
        "generator" : "Khronos glTF Blender I/O v1.1.46",
        "version" : "2.0"
    },
    "scene" : 0,
    "scenes" : [
        {
            "name" : "Scene",
            "nodes" : [
                0,
                1
            ]
        }
    ],
    "nodes" : [
        {
            "name" : "Light",
            "rotation" : [
                0.16907575726509094,
                0.7558803558349609,
                -0.27217137813568115,
                0.570947527885437
            ],
            "translation" : [
                4.076245307922363,
                5.903861999511719,
                -1.0054539442062378
            ]
        },
        {
            "mesh" : 0,
            "name" : "Side table v1",
            "scale" : [
                0.004999999888241291,
                0.004999999888241291,
                0.004999999888241291
            ],
            "translation" : [
                0,
                1.679999828338623,
                0
            ]
        }
    ],
    "materials" : [
        {
            "doubleSided" : true,
            "emissiveFactor" : [
                0,
                0,
                0
            ],
            "name" : "Material.001",
            "pbrMetallicRoughness" : {
                "baseColorTexture" : {
                    "index" : 0,
                    "texCoord" : 0
                },
                "metallicFactor" : 0,
                "roughnessFactor" : 0.5
            }
        }
    ],
    "meshes" : [
        {
            "name" : "Side table v1",
            "primitives" : [
                {
                    "attributes" : {
                        "POSITION" : 0,
                        "NORMAL" : 1,
                        "TEXCOORD_0" : 2
                    },
                    "indices" : 3,
                    "material" : 0
                }
            ]
        }
    ],
    "textures" : [
        {
            "source" : 0
        }
    ],
    "images" : [
        {
            "bufferView" : 4,
            "mimeType" : "image/jpeg",
            "name" : "Free-Photoshop-Purity-Wood-Texture"
        }
    ],
    "accessors" : [
        {
            "bufferView" : 0,
            "componentType" : 5126,
            "count" : 28614,
            "max" : [
                250,
                30,
                249.96853637695312
            ],
            "min" : [
                -271.0710144042969,
                -330.3982849121094,
                -249.96853637695312
            ],
            "type" : "VEC3"
        },
        {
            "bufferView" : 1,
            "componentType" : 5126,
            "count" : 28614,
            "type" : "VEC3"
        },
        {
            "bufferView" : 2,
            "componentType" : 5126,
            "count" : 28614,
            "type" : "VEC2"
        },
        {
            "bufferView" : 3,
            "componentType" : 5123,
            "count" : 29052,
            "type" : "SCALAR"
        }
    ],
    "bufferViews" : [
        {
            "buffer" : 0,
            "byteLength" : 343368,
            "byteOffset" : 0
        },
        {
            "buffer" : 0,
            "byteLength" : 343368,
            "byteOffset" : 343368
        },
        {
            "buffer" : 0,
            "byteLength" : 228912,
            "byteOffset" : 686736
        },
        {
            "buffer" : 0,
            "byteLength" : 58104,
            "byteOffset" : 915648
        },
        {
            "buffer" : 0,
            "byteLength" : 86057,
            "byteOffset" : 973752
        }
    ],
    "buffers" : [
        {
            "byteLength" : 1059812,
            "uri" : "data:application/octet-stream;base64,"
        }
    ]
}
